<svg xmlns="http://www.w3.org/2000/svg" viewBox="0 0 180 180">
  <defs>
    <!-- Gradient matching the website logo: from-emerald-500 to-green-600 -->
    <linearGradient id="logoGradient" x1="0" y1="0" x2="1" y2="1">
      <stop offset="0%" style="stop-color:#10b981"/>
      <stop offset="100%" style="stop-color:#16a34a"/>
    </linearGradient>
  </defs>
  
  <!-- Rounded square background for Apple Touch Icon -->
  <rect width="180" height="180" rx="40" ry="40" fill="url(#logoGradient)"/>
  
  <!-- Brain icon scaled appropriately for 180x180 -->
  <g fill="white" stroke="none" transform="translate(90, 90) scale(3.5)">
    <!-- Lucide brain icon path -->
    <path d="M9.5 2A2.5 2.5 0 0 1 12 4.5v15a2.5 2.5 0 0 1-4.5 1.5A2.5 2.5 0 0 1 5 19.5v-15A2.5 2.5 0 0 1 7.5 2"/>
    <path d="M14.5 2A2.5 2.5 0 0 0 12 4.5v15a2.5 2.5 0 0 0 4.5 1.5A2.5 2.5 0 0 0 19 19.5v-15A2.5 2.5 0 0 0 16.5 2"/>
    <path d="M6 4a2.5 2.5 0 0 0-2.5 2.5v1.5A2.5 2.5 0 0 0 6 10.5"/>
    <path d="M18 4a2.5 2.5 0 0 1 2.5 2.5v1.5A2.5 2.5 0 0 1 18 10.5"/>
  </g>
</svg>
