<svg width="32" height="32" viewBox="0 0 32 32" xmlns="http://www.w3.org/2000/svg">
  <!-- Green background similar to the provided brain image -->
  <rect width="32" height="32" rx="6" fill="#10b981"/>
  
  <!-- Brain icon in white -->
  <g fill="white" transform="translate(6, 6)">
    <!-- Main brain outline -->
    <path d="M10 2.5C12.5 2.5 14.5 4 15 6.5C16 6 17 6.5 17.5 7.5C18 8.5 18 9.5 17.5 10.5C18 11.5 18 13 17 14S14.5 14.5 13 14C12 14.5 10.5 14.5 9 14C7.5 14.5 6 14.5 5 13.5S3.5 10.5 4 9.5C3.5 8.5 3.5 7.5 4 6.5C4.5 5.5 5.5 5 6.5 5.5C7 3 9 2.5 10 2.5Z" stroke="white" stroke-width="0.5" fill="white"/>
    
    <!-- Brain divisions/creases -->
    <path d="M10 5V13M7 7C7 7 8.5 8.5 10 8.5S13 7 13 7M6 10.5C6 10.5 7.5 12 10 12S14 10.5 14 10.5" stroke="#10b981" stroke-width="0.8" fill="none"/>
    
    <!-- Additional brain detail lines -->
    <path d="M5.5 8.5C5.5 8.5 6.5 9.5 7.5 9.5M14.5 8.5C14.5 8.5 13.5 9.5 12.5 9.5M8 11.5C8 11.5 9 12.5 10 12.5S12 11.5 12 11.5" stroke="#10b981" stroke-width="0.6" fill="none"/>
  </g>
</svg>
