<svg xmlns="http://www.w3.org/2000/svg" viewBox="0 0 100 100">
  <defs>
    <linearGradient id="bgGradient" x1="0%" y1="0%" x2="100%" y2="100%">
      <stop offset="0%" style="stop-color:#10b981;stop-opacity:1" />
      <stop offset="100%" style="stop-color:#059669;stop-opacity:1" />
    </linearGradient>
  </defs>
  
  <!-- Background -->
  <rect width="100" height="100" rx="22" ry="22" fill="url(#bgGradient)"/>
  
  <!-- Brain Icon -->
  <g fill="white" transform="translate(20, 20) scale(0.6)">
    <!-- Main brain shape -->
    <path d="M50 15c-8.5 0-15.5 6.2-16.8 14.3C31.8 29.1 30.4 29 29 29c-7.7 0-14 6.3-14 14 0 2.1 0.5 4.1 1.3 5.9C14.5 50.4 13 52.6 13 55c0 4.4 3.6 8 8 8 1.2 0 2.3-0.3 3.3-0.8C26.1 66.4 30.7 70 36 70h28c5.3 0 9.9-3.6 11.7-7.8 1 0.5 2.1 0.8 3.3 0.8 4.4 0 8-3.6 8-8 0-2.4-1.5-4.6-3.3-6.1 0.8-1.8 1.3-3.8 1.3-5.9 0-7.7-6.3-14-14-14-1.4 0-2.8 0.1-4.2 0.3C65.5 21.2 58.5 15 50 15z"/>
    
    <!-- Brain folds/details -->
    <path d="M35 35c3 0 5.5 2.5 5.5 5.5S38 46 35 46s-5.5-2.5-5.5-5.5S32 35 35 35z" fill="#10b981" opacity="0.6"/>
    <path d="M50 25c2.5 0 4.5 2 4.5 4.5S52.5 34 50 34s-4.5-2-4.5-4.5S47.5 25 50 25z" fill="#10b981" opacity="0.6"/>
    <path d="M65 40c2.2 0 4 1.8 4 4s-1.8 4-4 4-4-1.8-4-4 1.8-4 4-4z" fill="#10b981" opacity="0.6"/>
    
    <!-- Brain stem -->
    <ellipse cx="50" cy="65" rx="6" ry="3" fill="white" opacity="0.9"/>
  </g>
</svg>
