<svg xmlns="http://www.w3.org/2000/svg" viewBox="0 0 100 100">
  <defs>
    <linearGradient id="bgGradient" x1="0%" y1="0%" x2="100%" y2="100%">
      <stop offset="0%" style="stop-color:#10b981;stop-opacity:1" />
      <stop offset="100%" style="stop-color:#059669;stop-opacity:1" />
    </linearGradient>
  </defs>
  
  <!-- Rounded square background -->
  <rect width="100" height="100" rx="20" ry="20" fill="url(#bgGradient)"/>
  
  <!-- Brain Icon -->
  <g fill="white" transform="translate(50, 50)">
    <!-- Left hemisphere -->
    <path d="M-15 -20c-8 0-12 6-12 12c0 3 1 6 3 8c-1 2 -1 4 -1 6c0 8 6 12 12 12c3 0 6-1 8-3c2 2 5 3 8 3h2v-38h-2c-3 0-6 1-8 3c-2-2-5-3-8-3z" />
    
    <!-- Right hemisphere -->
    <path d="M15 -20c8 0 12 6 12 12c0 3 -1 6 -3 8c1 2 1 4 1 6c0 8 -6 12 -12 12c-3 0-6-1-8-3c-2 2-5 3-8 3h-2v-38h2c3 0 6 1 8 3c2-2 5-3 8-3z" />
    
    <!-- Brain divisions/folds -->
    <path d="M-8 -12c0 2 1 4 3 4s3-2 3-4s-1-4-3-4s-3 2-3 4z" fill="#10b981" opacity="0.4"/>
    <path d="M5 -8c0 2 1 4 3 4s3-2 3-4s-1-4-3-4s-3 2-3 4z" fill="#10b981" opacity="0.4"/>
    <path d="M-10 0c0 2 1 4 3 4s3-2 3-4s-1-4-3-4s-3 2-3 4z" fill="#10b981" opacity="0.4"/>
    <path d="M8 2c0 2 1 4 3 4s3-2 3-4s-1-4-3-4s-3 2-3 4z" fill="#10b981" opacity="0.4"/>
    
    <!-- Central connection -->
    <ellipse cx="0" cy="-5" rx="3" ry="15" fill="white" opacity="0.8"/>
    
    <!-- Brain stem -->
    <ellipse cx="0" cy="20" rx="4" ry="8" fill="white" opacity="0.9"/>
  </g>
</svg>
