<svg width="32" height="32" viewBox="0 0 32 32" xmlns="http://www.w3.org/2000/svg">
  <rect width="32" height="32" rx="6" fill="#10b981"/>
  <path d="M16 7c3 0 5.5 2 6 5.5 1.5-.5 3 0 3.5 1.5.5 1.5.5 3 0 4.5.5 1.5.5 3.5-1 4.5s-3.5.5-5.5 0c-1 .5-3 .5-5 0-2 .5-4 .5-5.5 0s-1.5-3-1-4.5c-.5-1.5-.5-3 0-4.5S9.5 12 11 12.5C11.5 9 14 7 16 7z" fill="white"/>
  <circle cx="13" cy="15" r="1.2" fill="#10b981"/>
  <circle cx="19" cy="15" r="1.2" fill="#10b981"/>
  <ellipse cx="16" cy="18" rx="2" ry="1" fill="#10b981"/>
</svg>
