<svg width="32" height="32" viewBox="0 0 32 32" xmlns="http://www.w3.org/2000/svg">
  <defs>
    <linearGradient id="brainGradient" x1="0%" y1="0%" x2="100%" y2="100%">
      <stop offset="0%" style="stop-color:#10b981;stop-opacity:1" />
      <stop offset="100%" style="stop-color:#059669;stop-opacity:1" />
    </linearGradient>
  </defs>
  
  <!-- Background circle -->
  <circle cx="16" cy="16" r="14" fill="url(#brainGradient)"/>
  
  <!-- Brain icon (simplified) -->
  <g fill="white" transform="translate(8, 8)">
    <path d="M8,2 C10.5,2 12.5,3.5 13,6 C14,5.5 15,6 15.5,7 C16,8 16,9 15.5,10 C16,11 16,12.5 15,13.5 C14,14.5 12.5,14.5 11,14 C10,14.5 8.5,14.5 7,14 C5.5,14.5 4,14.5 3,13.5 C2,12.5 2,11 2.5,10 C2,9 2,8 2.5,7 C3,6 4,5.5 5,6 C5.5,3.5 7.5,2 8,2 Z" />
    <circle cx="6" cy="8" r="0.8" fill="url(#brainGradient)"/>
    <circle cx="10" cy="8" r="0.8" fill="url(#brainGradient)"/>
    <circle cx="8" cy="10" r="0.6" fill="url(#brainGradient)"/>
  </g>
</svg>
